PathFileType	4	(X/Y/Z)	0_coords_data.trc
DataRate	CameraRate	NumFrames	NumMarkers	Units	OrigDataRate	OrigDataStartFrame	OrigNumFrames
30.0	30.0	6	21	m	30.0	1	78
Frame#	Time	THUMB_TIP	THUMB_IP	THUMB_MCP	THUMB_CMC	INDEX_TIP	INDEX_DIP	INDEX_PIP	INDEX_MCP	MIDDLE_TIP	MIDDLE_DIP	MIDDLE_PIP	MIDDLE_MCP	RING_TIP	RING_DIP	RING_PIP	RING_MCP	PINKY_TIP	PINKY_DIP	PINKY_PIP	PINKY_MCP	WRIST
X1	Y1	Z1	X2	Y2	Z2	X3	Y3	Z3	X4	Y4	Z4	X5	Y5	Z5	X6	Y6	Z6	X7	Y7	Z7	X8	Y8	Z8	X9	Y9	Z9	X10	Y10	Z10	X11	Y11	Z11	X12	Y12	Z12	X13	Y13	Z13	X14	Y14	Z14	X15	Y15	Z15	X16	Y16	Z16	X17	Y17	Z17	X18	Y18	Z18	X19	Y19	Z19	X20	Y20	Z20	X21	Y21	Z21
0	0.0	0.018430299758911133	-0.06814739990234375	0.9403839721679688	0.005917290210723877	-0.06434049987792968	0.967114013671875	-0.007925580024719239	-0.06876190185546875	0.9982739868164062	-0.019475900650024414	-0.04171289825439453	1.0208200073242188	0.0058951997756958	-0.04642340087890625	0.8926179809570313	-0.013048399925231933	-0.04969549942016602	0.9075570068359375	-0.03132699966430664	-0.05279439926147461	0.9257899780273438	-0.05073160171508789	-0.05640489959716797	0.96422900390625	0.015837900161743163	-0.021581499099731446	0.887447021484375	-0.003655999898910522	-0.023307100296020507	0.9030850219726563	-0.027858299255371095	-0.02559040069580078	0.9233759765625	-0.05365670013427734	-0.0300575008392334	0.962947021484375	0.023836599349975587	0.001411280035972595	0.9061309814453125	0.001835590004920959	0.003744539976119995	0.9135399780273438	-0.02565049934387207	0.003643140077590942	0.9270050048828125	-0.046021099090576174	-0.007140039920806885	0.9658930053710938	0.0151048002243042	0.015635000228881837	0.9312230224609375	-0.002265840053558349	0.022616199493408203	0.9364979858398438	-0.021495500564575196	0.025654300689697266	0.9458619995117188	-0.03551620101928711	0.014217800140380859	0.9731320190429688	-0.04756069946289063	-0.019797700881958008	1.049510009765625
1	0.03333333333333333	0.018635799407958984	-0.06784300231933593	0.940280029296875	0.006085659980773926	-0.0641178970336914	0.9671220092773437	-0.007778429985046386	-0.06862840270996094	0.998301025390625	-0.0194424991607666	-0.04162360000610352	1.0211400146484375	0.0061279401779174795	-0.04622520065307617	0.8927780151367187	-0.012660400390625	-0.04956760025024414	0.9076110229492188	-0.031027900695800782	-0.052666500091552736	0.9258740234375	-0.0507156982421875	-0.05639459991455078	0.9644970092773437	0.015972000122070312	-0.02144499969482422	0.8875479736328125	-0.0035994699001312253	-0.02316939926147461	0.9032039794921874	-0.027678800582885743	-0.02550160026550293	0.9234669799804688	-0.05352539825439453	-0.03001959991455078	0.9625020141601562	0.02396500015258789	0.00146379005908966	0.90627197265625	0.001991790056228637	0.0038761799335479733	0.9137329711914063	-0.025584800720214844	0.0036322200298309322	0.9269639892578125	-0.046000499725341794	-0.007093480110168457	0.9658610229492187	0.01528339958190918	0.01566580009460449	0.9314509887695313	-0.002136070013046264	0.022633899688720704	0.9364869995117188	-0.021387399673461913	0.02575349998474121	0.9458560180664063	-0.035412700653076175	0.014301699638366699	0.9731090087890625	-0.04744860076904297	-0.01978860092163086	1.0496300048828124
2	0.06666666666666667	0.018540199279785157	-0.06791909790039062	0.9401220092773438	0.005892580032348633	-0.06411299896240234	0.9669409790039063	-0.007877419948577881	-0.06869439697265625	0.9982529907226563	-0.019436100006103515	-0.04180500030517578	1.0205499877929687	0.006208549976348877	-0.04640859985351563	0.892885009765625	-0.012737899780273438	-0.04964039993286133	0.907593994140625	-0.031091299057006836	-0.052729400634765625	0.9258209838867187	-0.050806499481201174	-0.05646960067749023	0.9643480224609375	0.016018999099731444	-0.021673500061035158	0.8875850219726562	-0.003548949956893921	-0.023339099884033203	0.9030709838867188	-0.02778849983215332	-0.02559040069580078	0.9233579711914063	-0.05364939880371094	-0.030028799057006835	0.9623259887695312	0.023919300079345705	0.0012430299520492548	0.9062410278320312	0.0019414499998092651	0.003692369937896728	0.9135960083007812	-0.02569420051574707	0.003540050029754638	0.9267739868164062	-0.0459546012878418	-0.007206369876861572	0.9657009887695313	0.015118200302124024	0.015517999649047851	0.9313469848632813	-0.0021978099346160887	0.022538700103759766	0.9363989868164062	-0.021423999786376952	0.025670799255371093	0.945718017578125	-0.035408401489257814	0.014255399703979493	0.9730089721679688	-0.04750569915771485	-0.019839399337768553	1.0496800537109374
3	0.1	0.01840369987487793	-0.06807610321044921	0.9400120239257812	0.005858049869537353	-0.06437940216064453	0.9669310302734375	-0.007978759765625	-0.06894580078125	0.998052978515625	-0.019475900650024414	-0.041896198272705076	1.0205900268554688	0.0060901098251342775	-0.046637699127197264	0.8926840209960938	-0.012925399780273437	-0.04989059829711914	0.9074249877929688	-0.03115169906616211	-0.05295420074462891	0.9256439819335938	-0.05093479919433594	-0.056624900817871096	0.9642319946289063	0.01589459991455078	-0.02201919937133789	0.8873699951171875	-0.0035757100582122802	-0.023651599884033203	0.9029979858398437	-0.027715700149536133	-0.02585099983215332	0.9232620239257813	-0.053542800903320316	-0.03012470054626465	0.96264599609375	0.02386319923400879	0.0008656330108642571	0.9061599731445312	0.001837010025978088	0.003358680009841919	0.913510986328125	-0.025668899536132814	0.003383739948272705	0.9266019897460938	-0.04600149917602539	-0.007322189807891846	0.9656119995117187	0.015056900024414063	0.015138500213623047	0.930989013671875	-0.002231659889221191	0.02226609992980957	0.9362260131835938	-0.021430200576782226	0.025464399337768555	0.9455150146484375	-0.03545249938964844	0.014059200286865234	0.972906005859375	-0.04758950042724609	-0.01994799995422363	1.049699951171875
4	0.13333333333333333	0.01825720024108887	-0.06820680236816407	0.9399710083007813	0.005779109954833985	-0.06450769805908203	0.9667509765625	-0.008049440383911134	-0.06910099792480469	0.9979290161132812	-0.0195762996673584	-0.041992801666259766	1.0206500244140626	0.005997910022735596	-0.04693539810180664	0.8925590209960937	-0.013021599769592286	-0.050204399108886716	0.9073469848632812	-0.03133340072631836	-0.05324959945678711	0.9256119995117188	-0.05109529876708984	-0.05686589813232422	0.9640390014648438	0.0156919002532959	-0.022335899353027343	0.8871699829101563	-0.0038650000095367433	-0.023995899200439454	0.9028109741210938	-0.027959699630737304	-0.02617340087890625	0.923156005859375	-0.053767398834228514	-0.03048139953613281	0.9619299926757813	0.023726900100708007	0.0005962269902229301	0.9060289916992188	0.0017239999771118159	0.003058320045471191	0.9134299926757813	-0.025774599075317383	0.0031292400360107423	0.9264630126953125	-0.046213100433349606	-0.0075280599594116215	0.965552001953125	0.01505239963531494	0.014754799842834473	0.9309329833984376	-0.002287430047988891	0.02188999938964844	0.936010009765625	-0.021508800506591798	0.02519569969177246	0.945406005859375	-0.035567001342773436	0.013836000442504883	0.97272998046875	-0.04769850158691406	-0.020168399810791014	1.0496300048828124
5	0.16666666666666666	0.018299800872802734	-0.06843990325927735	0.9397030029296874	0.005699629783630371	-0.06472760009765625	0.9666530151367188	-0.008100500106811523	-0.06927010345458984	0.9980349731445313	-0.019782800674438477	-0.04213819885253906	1.0208300170898437	0.006071249961853028	-0.047249198913574215	0.8926640014648437	-0.012942500114440918	-0.050502601623535155	0.9073060302734375	-0.03148250007629395	-0.053557899475097655	0.9254400024414062	-0.05120220184326172	-0.05719660186767578	0.9639130249023438	0.01575510025024414	-0.02268269920349121	0.8872219848632813	-0.003868959903717041	-0.024316200256347655	0.9026920166015625	-0.027997100830078125	-0.026463699340820313	0.9230700073242187	-0.05390689849853516	-0.03074049949645996	0.9624019775390625	0.023724199295043946	0.00023816199600696503	0.9060479736328125	0.001638870000839233	0.0026785800457000733	0.9132139892578125	-0.025868999481201173	0.002839190006256103	0.9263800048828125	-0.046029701232910156	-0.007771349906921386	0.9652449951171875	0.014954099655151367	0.014426199913024903	0.9309580078125	-0.002446749925613403	0.021597000122070314	0.93585498046875	-0.021623199462890624	0.024893299102783203	0.9451680297851562	-0.035587299346923826	0.013620100021362304	0.9726099853515625	-0.04770100021362305	-0.020519300460815428	1.049300048828125
